<svg width="160" height="80" viewBox="0 0 160 80" fill="none" xmlns="http://www.w3.org/2000/svg">
<mask id="mask0" mask-type="alpha" maskUnits="userSpaceOnUse" x="0" y="0" width="160" height="80">
<rect width="160" height="80" fill="#C4C4C4"/>
</mask>
<g mask="url(#mask0)">
<path d="M117.998 12.402C117.4 12.402 116.935 12.8669 116.935 13.4645C116.935 13.5973 116.935 13.6637 117.002 13.7965L109.897 16.519C109.83 16.519 109.83 16.5854 109.83 16.6518L109.897 16.7182L117.002 13.9293C117.201 14.2613 117.533 14.5269 117.931 14.5269C118.529 14.5269 118.994 14.0621 118.994 13.4645C119.06 12.8669 118.595 12.402 117.998 12.402Z" fill="#F4601E"/>
<path d="M94.2255 11.3396L90.7061 24.9521C90.7061 25.0185 90.7061 25.0185 90.7725 25.085C90.8389 25.085 90.8389 25.0849 90.8389 25.0185L94.3583 11.3396C94.4247 11.3396 94.4247 11.3396 94.4247 11.3396C94.8231 11.3396 95.1551 11.0076 95.1551 10.6092C95.1551 10.2107 94.8231 9.87872 94.4247 9.87872C94.0262 9.87872 93.6942 10.2107 93.6942 10.6092C93.7606 11.0076 93.9598 11.2732 94.2255 11.3396Z" fill="#F4601E"/>
<path d="M85.0619 6.82414C85.1283 6.82414 85.1283 6.82414 85.1283 6.82414L89.9093 24.9521C89.9093 25.0185 89.9757 25.0185 89.9757 25.0185C90.0421 25.0185 90.0421 24.9521 90.0421 24.8857L85.2611 6.75774C85.5267 6.62493 85.7259 6.35932 85.7259 6.09371C85.7259 5.6953 85.3939 5.36328 84.9955 5.36328C84.5971 5.36328 84.3315 5.69529 84.3315 6.16011C84.3315 6.62493 84.6635 6.82414 85.0619 6.82414Z" fill="#F4601E"/>
<path d="M76.6288 17.3822C76.2304 17.3822 75.8983 17.7142 75.8983 18.1126C75.8983 18.511 76.2304 18.843 76.6288 18.843C76.8944 18.843 77.0936 18.7102 77.2264 18.511L80.5465 20.3703C80.5465 20.3703 80.5465 20.3703 80.6129 20.3703C80.6129 20.3703 80.6793 20.3703 80.6793 20.3039C80.6793 20.2375 80.6793 20.2375 80.6793 20.1711L77.4256 18.3118C77.492 18.2454 77.492 18.1126 77.492 18.0462C77.3592 17.7142 77.0272 17.3822 76.6288 17.3822Z" fill="#F4601E"/>
<path d="M75.0351 22.296C74.6367 22.296 74.3047 22.628 74.3047 23.0265C74.3047 23.4249 74.6367 23.7569 75.0351 23.7569C75.3671 23.7569 75.6327 23.5577 75.6991 23.2921L88.7804 26.1474C88.8469 26.1474 88.8469 26.1474 88.8469 26.081C88.8469 26.0146 88.8469 26.0146 88.7804 26.0146L75.6991 23.1593V23.0929C75.7655 22.628 75.4335 22.296 75.0351 22.296Z" fill="#F4601E"/>
<path d="M77.824 38.9631C78.2274 38.9631 78.5544 38.6361 78.5544 38.2327C78.5544 37.8293 78.2274 37.5022 77.824 37.5022C77.4206 37.5022 77.0936 37.8293 77.0936 38.2327C77.0936 38.6361 77.4206 38.9631 77.824 38.9631Z" fill="#F4601E"/>
<path d="M82.8042 36.5063L89.3781 27.8739C89.3781 27.8075 89.3781 27.8075 89.3781 27.7411C89.3117 27.7411 89.3117 27.7411 89.2453 27.7411L82.6714 36.3735C82.5386 36.3071 82.4722 36.2407 82.3394 36.2407C81.941 36.2407 81.609 36.5727 81.609 36.9711C81.609 37.3695 81.941 37.7015 82.3394 37.7015C82.7378 37.7015 83.0698 37.3695 83.0698 36.9711C83.0034 36.7719 82.937 36.6391 82.8042 36.5063Z" fill="#F4601E"/>
<path d="M90.7725 41.8848L90.5069 28.0067C90.5069 27.9403 90.4405 27.9403 90.4405 27.9403C90.3741 27.9403 90.3741 28.0067 90.3741 28.0067L90.6397 41.8848C90.3077 41.9512 90.0421 42.2168 90.0421 42.6153C90.0421 43.0137 90.3741 43.3457 90.7725 43.3457C91.1709 43.3457 91.503 43.0137 91.503 42.6153C91.4366 42.2168 91.1709 41.9512 90.7725 41.8848Z" fill="#F4601E"/>
<path d="M96.8152 40.6896C96.7488 40.6896 96.6824 40.6896 96.6824 40.6896L91.171 27.8075C91.171 27.7411 91.1046 27.7411 91.0382 27.7411C90.9718 27.7411 90.9718 27.8075 90.9718 27.8739L96.4832 40.756C96.284 40.8888 96.2176 41.0216 96.2176 41.2209C96.2176 41.5529 96.4832 41.8185 96.8152 41.8185C97.1472 41.8185 97.4128 41.5529 97.4128 41.2209C97.4128 40.9552 97.1472 40.6896 96.8152 40.6896Z" fill="#F4601E"/>
<path d="M105.248 18.511C105.58 18.511 105.846 18.2454 105.846 17.9134C105.846 17.5814 105.58 17.3158 105.248 17.3158C104.916 17.3158 104.651 17.5814 104.651 17.9134C104.651 17.9798 104.651 17.9798 104.651 18.0462L101.065 19.4407C100.999 19.4407 100.999 19.5071 100.999 19.5735L101.065 19.6399L104.651 18.2454C104.85 18.3782 105.049 18.511 105.248 18.511Z" fill="#F4601E"/>
<path d="M102.725 8.41786C102.725 8.61707 102.791 8.74987 102.924 8.81627L99.3385 13.8629C99.3385 13.9293 99.3385 13.9293 99.3385 13.9957C99.3385 13.9957 99.3385 13.9957 99.4049 13.9957C99.4049 13.9957 99.4713 13.9957 99.4713 13.9293L103.123 8.88268C103.19 8.94908 103.323 8.94908 103.389 8.94908C103.721 8.94908 103.987 8.68347 103.987 8.35145C103.987 8.01944 103.721 7.75383 103.389 7.75383C103.057 7.75383 102.725 8.08584 102.725 8.41786Z" fill="#F4601E"/>
<path d="M88.9796 10.4763L89.1789 13.5972C89.1789 13.6636 89.2453 13.6636 89.2453 13.6636C89.3117 13.6636 89.3117 13.5972 89.3117 13.5972L89.1124 10.4763C89.3117 10.4099 89.4445 10.2771 89.4445 10.0779C89.4445 9.81226 89.2453 9.67946 89.0461 9.67946C88.8468 9.67946 88.6476 9.87867 88.6476 10.0779C88.5812 10.2771 88.7804 10.4763 88.9796 10.4763Z" fill="#F4601E"/>
<path d="M79.5505 9.34752C79.6169 9.34752 79.6833 9.34752 79.6833 9.34752L89.5109 25.1514L89.5773 25.2178C89.5773 25.2178 89.5773 25.2178 89.6437 25.2178C89.7101 25.2178 89.7101 25.1514 89.6437 25.085L79.8161 9.21471C79.8825 9.14831 79.9489 9.01551 79.9489 8.8827C79.9489 8.61709 79.7497 8.48428 79.5505 8.48428C79.3512 8.48428 79.152 8.68349 79.152 8.8827C79.152 9.08191 79.2848 9.34752 79.5505 9.34752Z" fill="#F4601E"/>
<path d="M74.5038 13.6637C74.6367 13.6637 74.7031 13.5973 74.7695 13.5309L77.6912 15.9214H77.7576H77.824C77.824 15.855 77.824 15.855 77.824 15.7886L74.9023 13.3981C74.9023 13.3317 74.9687 13.2653 74.9687 13.1989C74.9687 12.9333 74.7695 12.8005 74.5703 12.8005C74.371 12.8005 74.1718 12.9997 74.1718 13.1989C74.1718 13.3981 74.3046 13.6637 74.5038 13.6637Z" fill="#F4601E"/>
<path d="M71.4494 20.0384C71.5822 20.0384 71.715 19.972 71.7814 19.8392L85.4603 24.753C85.5267 25.0186 85.726 25.2178 85.9916 25.2178C86.1244 25.2178 86.2572 25.1514 86.39 25.085L88.8469 25.9482C88.9133 25.9482 88.9133 25.9482 88.9133 25.8818V25.8154C88.9133 25.749 88.9133 25.749 88.8469 25.6826L86.5228 24.753C86.5228 24.6866 86.5228 24.6866 86.5228 24.6202C86.5228 24.2881 86.2572 24.0225 85.9252 24.0225C85.6596 24.0225 85.3939 24.2217 85.3275 24.5537L71.715 19.7063V19.6399C71.715 19.3743 71.5158 19.2415 71.3166 19.2415C71.1174 19.2415 70.9182 19.4407 70.9182 19.6399C70.9182 19.8392 71.1838 20.0384 71.4494 20.0384ZM86.5892 24.8858L86.9212 25.0186L86.5892 24.8858Z" fill="#F4601E"/>
<path d="M83.5346 21.3663C83.269 21.3663 83.1362 21.5655 83.1362 21.7647C83.1362 21.9639 83.3354 22.1632 83.5346 22.1632C83.6674 22.1632 83.7338 22.0967 83.8666 22.0303L89.0461 25.5497C89.0461 25.5497 89.0461 25.5497 89.1125 25.5497C89.1125 25.5497 89.1789 25.5497 89.1789 25.4833C89.1789 25.4169 89.1789 25.4169 89.1789 25.3505L83.9995 21.8311C83.9995 21.7647 84.0659 21.6983 84.0659 21.6319C83.9995 21.4991 83.8002 21.3663 83.5346 21.3663Z" fill="#F4601E"/>
<path d="M75.3671 28.073C75.5871 28.073 75.7655 27.8946 75.7655 27.6746C75.7655 27.4546 75.5871 27.2762 75.3671 27.2762C75.1471 27.2762 74.9687 27.4546 74.9687 27.6746C74.9687 27.8946 75.1471 28.073 75.3671 28.073Z" fill="#F4601E"/>
<path d="M87.5852 37.9671C88.382 34.6469 89.2453 31.3932 90.0421 28.0731C90.0421 28.0067 90.0421 28.0067 89.9757 27.9403C89.9093 27.9403 89.9093 27.9403 89.8429 28.0067C89.0461 31.3268 88.1828 34.5805 87.386 37.9007C87.1204 37.9007 86.9876 38.0999 86.9876 38.2991C86.9876 38.5647 87.1868 38.6975 87.386 38.6975C87.6516 38.6975 87.7844 38.4983 87.7844 38.2991C87.8508 38.2327 87.718 38.0335 87.5852 37.9671Z" fill="#F4601E"/>
<path d="M92.2334 37.9007L91.7686 34.0493C91.7686 33.9829 91.7022 33.9829 91.7022 33.9829C91.6358 33.9829 91.6358 34.0493 91.6358 34.0493L92.1006 37.9007C91.9014 37.9671 91.835 38.0999 91.835 38.2991C91.835 38.5647 92.0342 38.6975 92.2334 38.6975C92.4326 38.6975 92.6318 38.4983 92.6318 38.2991C92.6318 38.0999 92.499 37.9007 92.2334 37.9007Z" fill="#F4601E"/>
<path d="M97.0144 35.311C96.948 35.311 96.8816 35.311 96.8152 35.3774L94.9559 32.8541C94.9559 32.7877 94.8895 32.7877 94.8231 32.8541C94.7567 32.8541 94.7567 32.9205 94.8231 32.9869L96.6824 35.5102C96.616 35.5766 96.5496 35.7094 96.5496 35.7758C96.5496 36.0414 96.7488 36.1742 96.948 36.1742C97.1472 36.1742 97.3464 35.975 97.3464 35.7758C97.4128 35.5102 97.28 35.311 97.0144 35.311Z" fill="#F4601E"/>
<path d="M102.393 36.7717C102.327 36.7717 102.194 36.8381 102.127 36.8381L93.8271 29.3346C93.8935 29.3346 93.9599 29.401 94.0263 29.401C94.3583 29.401 94.6239 29.1354 94.6239 28.8034L100.003 31.8579C99.9361 31.9907 99.9361 32.0572 99.9361 32.19C99.9361 32.6548 100.335 33.0532 100.799 33.0532C101.264 33.0532 101.663 32.6548 101.663 32.19C101.663 31.7251 101.264 31.3267 100.799 31.3267C100.534 31.3267 100.268 31.4595 100.069 31.7251L94.5575 28.6042C94.4911 28.405 94.2919 28.2058 94.0263 28.2058C93.9599 28.2058 93.9599 28.2058 93.9599 28.2058L91.835 27.0105C91.7686 27.0105 91.7686 27.0105 91.7022 27.0105C91.7022 27.0769 91.7022 27.0769 91.7022 27.1433L93.6943 28.2722C93.495 28.405 93.4286 28.5378 93.4286 28.737C93.4286 28.8698 93.4286 28.9362 93.495 29.0026L91.6358 27.3426C91.5694 27.3426 91.5694 27.3426 91.503 27.3426C91.503 27.409 91.503 27.409 91.503 27.4754L101.928 36.9046C101.862 36.971 101.862 37.0374 101.862 37.1038C101.862 37.3694 102.061 37.5022 102.26 37.5022C102.459 37.5022 102.659 37.303 102.659 37.1038C102.659 36.9046 102.592 36.7717 102.393 36.7717Z" fill="#F4601E"/>
<path d="M89.8429 33.0533C90.0629 33.0533 90.2413 32.8749 90.2413 32.6549C90.2413 32.4348 90.0629 32.2564 89.8429 32.2564C89.6228 32.2564 89.4445 32.4348 89.4445 32.6549C89.4445 32.8749 89.6228 33.0533 89.8429 33.0533Z" fill="#F4601E"/>
<path d="M92.2998 22.4288C92.6299 22.4288 92.8974 22.1612 92.8974 21.8312C92.8974 21.5011 92.6299 21.2336 92.2998 21.2336C91.9697 21.2336 91.7022 21.5011 91.7022 21.8312C91.7022 22.1612 91.9697 22.4288 92.2998 22.4288Z" fill="#F4601E"/>
<path d="M90.5733 16.9838L90.3077 25.0186C90.3077 25.085 90.3741 25.085 90.3741 25.085C90.3741 25.085 90.4405 25.085 90.4405 25.0186C90.5069 25.0186 90.5069 25.0186 90.5069 24.9522L92.2998 6.75781C92.7646 6.75781 93.163 6.3594 93.163 5.89458C93.163 5.42976 92.7646 5.03134 92.2998 5.03134C91.835 5.03134 91.4366 5.42976 91.4366 5.89458C91.4366 6.29299 91.7686 6.69141 92.167 6.75781L90.4405 24.0225L90.6397 16.9838C90.9053 16.9174 91.171 16.7182 91.171 16.3862C91.171 16.0542 90.9053 15.7886 90.5733 15.7886C90.2413 15.7886 89.9757 16.0542 89.9757 16.3862C90.1085 16.6518 90.3077 16.9174 90.5733 16.9838Z" fill="#F4601E"/>
<path d="M82.273 28.073C82.6031 28.073 82.8706 27.8054 82.8706 27.4754C82.8706 27.1453 82.6031 26.8778 82.273 26.8778C81.943 26.8778 81.6754 27.1453 81.6754 27.4754C81.6754 27.8054 81.943 28.073 82.273 28.073Z" fill="#F4601E"/>
<path d="M85.6595 31.9909C85.9896 31.9909 86.2571 31.7233 86.2571 31.3932C86.2571 31.0632 85.9896 30.7956 85.6595 30.7956C85.3295 30.7956 85.0619 31.0632 85.0619 31.3932C85.0619 31.7233 85.3295 31.9909 85.6595 31.9909Z" fill="#F4601E"/>
<path d="M84.1986 11.8044C84.265 11.8044 84.265 11.8044 84.3314 11.8044L86.6555 17.5814C86.5891 17.6478 86.5227 17.7806 86.5227 17.8471C86.5227 18.0463 86.7219 18.2455 86.9211 18.2455L89.6437 24.9521L89.7101 25.0185C89.7765 25.0185 89.7765 24.9521 89.7765 24.8857L87.054 18.2455C87.2532 18.1791 87.3196 18.0463 87.3196 17.8471C87.3196 17.5814 87.1203 17.4486 86.9211 17.4486C86.8547 17.4486 86.7883 17.4486 86.7219 17.515L84.3978 11.8044C84.597 11.6716 84.6635 11.5388 84.6635 11.3396C84.6635 11.0076 84.3978 10.742 84.0658 10.742C83.7338 10.742 83.4682 11.0076 83.4682 11.3396C83.6674 11.5388 83.8666 11.8044 84.1986 11.8044Z" fill="#F4601E"/>
<path d="M107.838 23.9561C107.44 23.9561 107.174 24.2881 107.108 24.6201L96.8152 25.2178C96.7488 25.2178 96.7488 25.2842 96.7488 25.2842C96.7488 25.3506 96.8152 25.3506 96.8152 25.3506L107.108 24.6865C107.174 25.0186 107.44 25.2842 107.838 25.2842C108.236 25.2842 108.568 24.9522 108.568 24.5537C108.568 24.1553 108.236 23.9561 107.838 23.9561Z" fill="#F4601E"/>
<path d="M106.112 30.3972C105.846 30.3972 105.58 30.5964 105.448 30.8621L91.9678 26.7451C91.9014 26.7451 91.9014 26.7451 91.835 26.8115C91.835 26.8779 91.835 26.8779 91.9014 26.9443L105.381 31.0613C105.381 31.1277 105.381 31.1277 105.381 31.1941C105.381 31.5925 105.713 31.9245 106.112 31.9245C106.51 31.9245 106.842 31.5925 106.842 31.1941C106.842 30.7957 106.51 30.3972 106.112 30.3972Z" fill="#F4601E"/>
<path d="M89.3781 25.2841C89.3781 25.2841 89.4445 25.2841 89.3781 25.2841C89.4445 25.2177 89.4445 25.1513 89.4445 25.1513L83.4682 18.179C83.601 18.0462 83.6675 17.847 83.6675 17.7142C83.6675 17.3158 83.3354 16.9838 82.937 16.9838C82.5386 16.9838 82.2066 17.3158 82.2066 17.7142C82.2066 18.1126 82.5386 18.4446 82.937 18.4446C83.0698 18.4446 83.2026 18.3782 83.3354 18.3118L89.3781 25.2841C89.3781 25.2841 89.3117 25.2841 89.3781 25.2841Z" fill="#F4601E"/>
<path d="M88.9133 27.2762C88.9797 27.2762 88.9797 27.2098 88.9133 27.1434C88.9133 27.077 88.8469 27.077 88.7804 27.1434L78.6872 32.7876C78.6208 32.7212 78.488 32.6548 78.3552 32.6548C78.0896 32.6548 77.9568 32.854 77.9568 33.0532C77.9568 33.2524 78.156 33.4516 78.3552 33.4516C78.5544 33.4516 78.7536 33.2524 78.7536 33.0532C78.7536 32.9868 78.7536 32.9868 78.7536 32.9204L88.9133 27.2762Z" fill="#F4601E"/>
<path d="M88.6476 26.4129C88.714 26.4129 88.714 26.3465 88.714 26.3465C88.714 26.2801 88.6476 26.2801 88.6476 26.2801H71.9142C71.8478 25.9481 71.5821 25.6161 71.1837 25.6161C70.7853 25.6161 70.4533 25.9481 70.4533 26.3465C70.4533 26.7449 70.7853 27.077 71.1837 27.077C71.5821 27.077 71.8478 26.8114 71.9142 26.4129H88.6476Z" fill="#F4601E"/>
<path d="M88.7805 27.0107C88.8469 27.0107 88.8469 26.9443 88.8469 26.8779C88.8469 26.8115 88.7805 26.8115 88.7141 26.8115L73.5742 32.0573C73.4414 31.7253 73.1094 31.5261 72.7774 31.5261C72.3126 31.5261 71.9142 31.9245 71.9142 32.3893C71.9142 32.8541 72.3126 33.2525 72.7774 33.2525C73.2422 33.2525 73.6406 32.8541 73.6406 32.3893C73.6406 32.3229 73.6406 32.2565 73.5742 32.1901L88.7805 27.0107Z" fill="#F4601E"/>
<path d="M81.609 15.9214C81.6754 15.855 81.6754 15.7886 81.6754 15.7886L80.0817 13.9293C80.1481 13.8629 80.1481 13.7965 80.1481 13.6637C80.1481 13.3981 79.9489 13.2653 79.7497 13.2653C79.5505 13.2653 79.3513 13.4645 79.3513 13.6637C79.3513 13.8629 79.5505 14.0621 79.7497 14.0621C79.8161 14.0621 79.8825 14.0621 79.9489 13.9957L81.609 15.9214C81.5426 15.9214 81.5426 15.9214 81.609 15.9214Z" fill="#F4601E"/>
<path d="M91.835 26.4794C91.835 26.5458 91.835 26.5458 91.9014 26.5458L102.127 27.4754C102.194 27.8738 102.459 28.1394 102.858 28.1394C103.256 28.1394 103.588 27.8074 103.588 27.409C103.588 27.0106 103.256 26.6786 102.858 26.6786C102.459 26.6786 102.194 26.9442 102.127 27.2762L91.9014 26.3466C91.9014 26.413 91.9014 26.4794 91.835 26.4794Z" fill="#F4601E"/>
<path d="M91.7686 25.6161C91.7022 25.6161 91.7022 25.6825 91.7022 25.749L91.7686 25.8154C91.7686 25.8154 91.7686 25.8154 91.835 25.8154L95.8855 23.8233C96.0183 23.9561 96.1512 24.0889 96.3504 24.0889C96.6824 24.0889 96.948 23.8233 96.948 23.4913C96.948 23.1592 96.6824 22.8936 96.3504 22.8936C96.0184 22.8936 95.7527 23.1592 95.7527 23.4913C95.7527 23.5577 95.7527 23.6241 95.8191 23.6905L91.7686 25.6161Z" fill="#F4601E"/>
<path d="M107.971 14.3277L108.037 14.3941C108.037 14.3941 108.037 14.3941 108.104 14.3941L111.092 12.6013C111.158 12.6677 111.291 12.7341 111.424 12.7341C111.689 12.7341 111.822 12.5349 111.822 12.3356C111.822 12.1364 111.623 11.9372 111.424 11.9372C111.225 11.9372 111.025 12.1364 111.025 12.3356C111.025 12.402 111.025 12.4684 111.025 12.4684L108.037 14.2613C107.904 14.2613 107.904 14.2613 107.971 14.3277Z" fill="#F4601E"/>
<path d="M104.119 13.066C104.119 13.066 104.119 12.9996 104.119 13.066L112.154 4.10168C112.287 4.23449 112.486 4.30089 112.685 4.30089C113.15 4.30089 113.549 3.90247 113.549 3.43765C113.549 2.97283 113.15 2.57442 112.685 2.57442C112.221 2.57442 111.822 2.97283 111.822 3.43765C111.822 3.63686 111.889 3.90247 112.088 4.03528L104.119 12.9996C103.987 12.9332 103.987 12.9996 104.119 13.066C104.053 13.066 104.053 13.066 104.119 13.066Z" fill="#F4601E"/>
<path d="M96.8152 13.066C96.8152 13.066 96.8816 13.066 96.8816 12.9996L101.862 1.64478C101.928 1.64478 102.061 1.71118 102.127 1.71118C102.592 1.71118 102.991 1.31277 102.991 0.847946C102.991 0.383127 102.592 -0.0152893 102.127 -0.0152893C101.663 -0.0152893 101.264 0.383127 101.264 0.847946C101.264 1.17996 101.463 1.44557 101.729 1.57838L96.7488 12.9332C96.6824 12.9332 96.6824 12.9996 96.8152 13.066C96.7488 13.066 96.7488 13.066 96.8152 13.066Z" fill="#F4601E"/>
<path d="M99.8697 23.2921C99.8697 23.3585 99.9361 23.3585 99.9361 23.3585L103.256 22.6281C103.323 22.7609 103.455 22.8937 103.655 22.8937C103.92 22.8937 104.053 22.6945 104.053 22.4953C104.053 22.2961 103.854 22.0969 103.655 22.0969C103.455 22.0969 103.256 22.2961 103.256 22.4953L99.9361 23.2257C99.8697 23.2257 99.8697 23.2921 99.8697 23.2921Z" fill="#F4601E"/>
<path d="M93.2959 20.7688C93.3623 20.7688 93.3623 20.7688 93.4287 20.7024L93.8271 19.7063H93.8935C94.1591 19.7063 94.2919 19.5071 94.2919 19.3079C94.2919 19.1087 94.0927 18.9095 93.8935 18.9095C93.6279 18.9095 93.4951 19.1087 93.4951 19.3079C93.4951 19.4407 93.5615 19.5735 93.6943 19.6399L93.2959 20.636C93.2295 20.7024 93.2295 20.7024 93.2959 20.7688Z" fill="#F4601E"/>
<path d="M86.1244 35.8421C86.058 35.8421 86.058 35.8421 85.9916 35.9086L84.1323 41.2872H84.0659C83.8003 41.2872 83.6675 41.4864 83.6675 41.6856C83.6675 41.8848 83.8667 42.084 84.0659 42.084C84.2651 42.084 84.4643 41.8848 84.4643 41.6856C84.4643 41.5528 84.3979 41.42 84.2651 41.2872L86.1244 35.9086C86.1908 35.9086 86.1244 35.8421 86.1244 35.8421Z" fill="#F4601E"/>
<path d="M33.9318 69.6413C29.35 69.6413 25.5651 65.4579 25.5651 60.2785C25.5651 55.0991 29.2836 50.9157 33.9318 50.9157C38.58 50.9157 42.2985 55.0991 42.2985 60.2785C42.2985 60.4777 42.1657 60.6105 41.9665 60.6105H26.2291C26.3619 65.2587 29.7484 68.9773 33.9318 68.9773C36.5215 68.9773 38.8456 67.5164 40.3065 65.1259C40.3729 64.9931 40.5721 64.9267 40.7713 64.9931C40.9041 65.0595 40.9705 65.2587 40.9041 65.4579C39.3104 68.0476 36.7207 69.6413 33.9318 69.6413ZM26.2291 59.9465H41.6345C41.5017 55.2983 38.1152 51.5798 33.9318 51.5798C29.7484 51.5798 26.3619 55.2983 26.2291 59.9465Z" fill="#3D3030"/>
<path d="M53.4542 69.6413C48.8724 69.6413 45.0875 65.4579 45.0875 60.2785C45.0875 55.0991 48.806 50.9157 53.4542 50.9157C56.7079 50.9157 59.5633 52.9078 60.9577 56.1616C61.0241 56.3608 60.9577 56.4936 60.7585 56.6264C60.5593 56.6928 60.4265 56.6264 60.2937 56.4272C58.9656 53.439 56.3095 51.5798 53.3878 51.5798C49.138 51.5798 45.6851 55.4975 45.6851 60.2785C45.6851 65.0595 49.2044 68.9773 53.4542 68.9773C56.0439 68.9773 58.4344 67.5164 59.8289 65.1259C59.8953 64.9931 60.0945 64.9267 60.2937 64.9931C60.4265 65.0595 60.4929 65.2587 60.4265 65.4579C58.8328 68.0476 56.2431 69.6413 53.4542 69.6413Z" fill="#3D3030"/>
<path d="M85.7923 69.6413C81.2105 69.6413 77.4256 65.4579 77.4256 60.2785C77.4256 55.0991 81.1441 50.9157 85.7923 50.9157C90.3741 50.9157 94.1591 55.0991 94.1591 60.2785C94.0927 65.3915 90.3741 69.6413 85.7923 69.6413ZM85.7923 51.5798C81.5426 51.5798 78.0896 55.4975 78.0896 60.2785C78.0896 65.0595 81.5426 68.9773 85.7923 68.9773C90.0421 68.9773 93.495 65.0595 93.495 60.2785C93.495 55.4975 90.0421 51.5798 85.7923 51.5798Z" fill="#3D3030"/>
<path d="M0.332014 69.5749C0.132805 69.5749 0 69.4421 0 69.2429V45.8027C0 45.6699 0.132805 45.5371 0.265611 45.4707C0.398416 45.4043 0.531222 45.4707 0.664027 45.6035L9.42919 60.9426C9.49559 61.0754 9.49559 61.2746 9.29638 61.4074C9.16358 61.4738 8.96437 61.4738 8.83156 61.2746L0.664027 47.0644V69.2429C0.664027 69.4421 0.531222 69.5749 0.332014 69.5749Z" fill="#3D3030"/>
<path d="M21.7801 69.5749C21.5809 69.5749 21.4481 69.4421 21.4481 69.2429V47.0644L11.3549 64.6611C11.2885 64.7939 11.0892 64.8603 10.89 64.7939C10.7572 64.7275 10.6908 64.5283 10.7572 64.3291L21.4481 45.6699C21.5145 45.5371 21.6473 45.4707 21.8465 45.5371C21.9793 45.6035 22.1121 45.7363 22.1121 45.8691V69.3093C22.1121 69.4421 21.9129 69.5749 21.7801 69.5749Z" fill="#3D3030"/>
<path d="M68.5276 51.9782H63.149C62.9498 51.9782 62.817 51.8454 62.817 51.6462C62.817 51.447 62.9498 51.3142 63.149 51.3142H68.5276C68.7268 51.3142 68.8596 51.447 68.8596 51.6462C68.8596 51.8454 68.7268 51.9782 68.5276 51.9782Z" fill="#3D3030"/>
<path d="M77.6912 51.9782H72.3126C72.1134 51.9782 71.9806 51.8454 71.9806 51.6462C71.9806 51.447 72.1134 51.3142 72.3126 51.3142H77.6912C77.8904 51.3142 78.0232 51.447 78.0232 51.6462C78.0232 51.8454 77.8904 51.9782 77.6912 51.9782Z" fill="#3D3030"/>
<path d="M90.4405 24.7531C89.5109 24.7531 88.7141 25.4835 88.7141 26.4795C88.7141 26.7451 88.7804 27.0107 88.9133 27.2764C82.273 32.5222 76.6952 39.2288 72.7774 46.5996C69.0588 53.5718 66.6683 61.1417 65.8051 69.0437C65.8051 69.2429 65.9379 69.3757 66.0707 69.4421C66.0707 69.4421 66.0707 69.4421 66.1371 69.4421C66.3363 69.4421 66.4691 69.3093 66.4691 69.1765C67.3324 61.341 69.6565 53.9039 73.375 46.9316C77.2928 39.5609 82.8042 32.987 89.3781 27.8076C89.6437 28.0732 90.0421 28.206 90.4405 28.206C91.3702 28.206 92.167 27.4756 92.167 26.4795C92.167 25.4835 91.3702 24.7531 90.4405 24.7531ZM90.4405 27.4756C89.8429 27.4756 89.3781 27.0107 89.3781 26.4131C89.3781 25.8155 89.8429 25.3507 90.4405 25.3507C91.0381 25.3507 91.503 25.8155 91.503 26.4131C91.503 27.0107 90.9717 27.4756 90.4405 27.4756Z" fill="#3D3030"/>
<path d="M49.2708 78.6719H48.5404V75.0861H46.6147V78.6719H45.8843V74.4885H49.2708V78.6719Z" fill="#3D3030"/>
<path d="M50.2004 76.547C50.2004 76.1486 50.2668 75.7502 50.466 75.4182C50.6653 75.0862 50.8645 74.8206 51.1301 74.6877C51.3957 74.5549 51.7277 74.4221 52.1261 74.4221C52.7237 74.4221 53.1886 74.6213 53.5206 75.0198C53.8526 75.4182 54.0518 75.9494 54.0518 76.6134V76.6798C54.0518 77.0782 53.9854 77.4767 53.7862 77.8087C53.587 78.1407 53.3878 78.4063 53.1222 78.5391C52.8565 78.6719 52.5245 78.8047 52.1261 78.8047C51.5285 78.8047 51.0637 78.6055 50.7317 78.2071C50.3996 77.8087 50.2004 77.2775 50.2004 76.547ZM50.9309 76.6134C50.9309 77.0782 51.0637 77.4767 51.2629 77.7423C51.4621 78.0079 51.7941 78.1407 52.1261 78.1407C52.5245 78.1407 52.7901 78.0079 52.9894 77.7423C53.1886 77.4767 53.3214 77.0782 53.3214 76.547C53.3214 76.0822 53.1886 75.6838 52.9894 75.4182C52.7901 75.1526 52.4581 75.0198 52.1261 75.0198C51.7941 75.0198 51.4621 75.1526 51.2629 75.4182C51.0637 75.6838 50.9309 76.0822 50.9309 76.6134Z" fill="#3D3030"/>
<path d="M54.6494 78.1407L54.915 77.8087C55.1806 77.4766 55.3798 76.879 55.3798 76.1486L55.4462 74.4885H58.1688V78.1407H58.7V79.9335H57.9695V78.6719H55.0478V79.9335H54.3174V78.1407H54.6494ZM55.4462 78.1407H57.3719V75.1526H56.0439L55.9775 76.1486C56.0439 77.0118 55.8447 77.6759 55.4462 78.1407Z" fill="#3D3030"/>
<path d="M63.149 78.2071C63.4146 78.2071 63.6138 78.1407 63.813 77.9415C64.0122 77.7423 64.0786 77.6095 64.145 77.3439H64.809C64.809 77.6095 64.7426 77.8087 64.5434 78.0079C64.3442 78.2071 64.2114 78.4063 63.9458 78.5391C63.6802 78.6719 63.4146 78.7383 63.149 78.7383C62.5513 78.7383 62.1529 78.5391 61.7545 78.1407C61.3561 77.7423 61.2233 77.2111 61.2233 76.547V76.4142C61.2233 76.0158 61.2897 75.6174 61.4225 75.3518C61.5553 75.0862 61.8209 74.7542 62.0865 74.6214C62.3521 74.4885 62.6841 74.3557 63.0826 74.3557C63.5474 74.3557 63.9458 74.4885 64.2778 74.7542C64.6098 75.0198 64.7426 75.4182 64.809 75.883H64.145C64.145 75.6174 64.0122 75.4182 63.813 75.219C63.6138 75.0198 63.4146 74.9534 63.149 74.9534C62.7505 74.9534 62.4849 75.0862 62.2857 75.3518C62.0865 75.6174 61.9537 76.0158 61.9537 76.4806V76.6134C61.9537 77.0783 62.0865 77.4767 62.2857 77.7423C62.4849 78.0079 62.7505 78.2071 63.149 78.2071Z" fill="#3D3030"/>
<path d="M65.4067 76.547C65.4067 76.1486 65.4731 75.7502 65.6723 75.4182C65.8715 75.0862 66.0707 74.8206 66.3363 74.6877C66.6019 74.5549 66.9339 74.4221 67.3324 74.4221C67.93 74.4221 68.3948 74.6213 68.7268 75.0198C69.0588 75.4182 69.258 75.9494 69.258 76.6134V76.6798C69.258 77.0782 69.1916 77.4767 68.9924 77.8087C68.7932 78.1407 68.594 78.4063 68.3284 78.5391C68.0628 78.6719 67.7308 78.8047 67.3324 78.8047C66.7347 78.8047 66.2699 78.6055 65.9379 78.2071C65.6059 77.8087 65.4067 77.2775 65.4067 76.547ZM66.1371 76.6134C66.1371 77.0782 66.2699 77.4767 66.4691 77.7423C66.6683 78.0079 67.0003 78.1407 67.3324 78.1407C67.7308 78.1407 67.9964 78.0079 68.1956 77.7423C68.3948 77.4767 68.5276 77.0782 68.5276 76.547C68.5276 76.0822 68.3948 75.6838 68.1956 75.4182C67.9964 75.1526 67.6644 75.0198 67.3324 75.0198C67.0003 75.0198 66.6683 75.1526 66.4691 75.4182C66.2699 75.6838 66.1371 76.0822 66.1371 76.6134Z" fill="#3D3030"/>
<path d="M73.5742 74.4885V78.6719H72.8438V75.0861H71.3829L71.3165 76.6798C71.2501 77.4102 71.1173 77.9415 70.9845 78.2071C70.8517 78.4727 70.4533 78.6719 70.0549 78.6719H69.7229V78.0079H69.9221C70.1877 78.0079 70.3205 77.8751 70.4533 77.6095C70.5861 77.3438 70.6525 76.9454 70.6525 76.2814L70.7189 74.4885H73.5742Z" fill="#3D3030"/>
<path d="M78.156 78.6719H77.4255V76.879H75.4999V78.6719H74.7694V74.4885H75.4999V76.2814H77.4255V74.4885H78.156V78.6719Z" fill="#3D3030"/>
<path d="M79.3513 74.4885H80.0817V78.1407H82.0074V74.4885H82.7378V78.1407H83.269L83.2026 79.9999H82.5386V78.7383H79.3513V74.4885Z" fill="#3D3030"/>
<path d="M85.7923 78.8047C85.1947 78.8047 84.7299 78.6055 84.3979 78.2735C84.0659 77.9415 83.8666 77.4103 83.8666 76.7462V76.6134C83.8666 76.215 83.933 75.8166 84.1323 75.4846C84.3315 75.1526 84.5307 74.887 84.7963 74.6877C85.0619 74.4885 85.3939 74.4221 85.7259 74.4221C86.2571 74.4221 86.722 74.6213 86.9876 74.9534C87.2532 75.2854 87.4524 75.8166 87.4524 76.4806V76.8126H84.5971C84.5971 77.2111 84.7299 77.5431 84.9291 77.8087C85.1283 78.0743 85.4603 78.2071 85.7923 78.2071C86.0579 78.2071 86.2571 78.1407 86.4563 78.0743C86.6556 78.0079 86.7884 77.8087 86.9212 77.6759L87.386 78.0079C86.9876 78.4727 86.4563 78.8047 85.7923 78.8047ZM85.6595 75.0198C85.3939 75.0198 85.1283 75.1526 84.9291 75.3518C84.7299 75.551 84.5971 75.883 84.5307 76.215H86.6556V76.1486C86.6556 75.7502 86.5228 75.4846 86.39 75.2854C86.2571 75.0862 85.9915 75.0198 85.6595 75.0198Z" fill="#3D3030"/>
<path d="M90.6397 77.7423L92.1006 74.4885H93.0302V78.6719H92.2998V75.6174L90.9053 78.6719H90.3741L88.9797 75.551V78.6719H88.3156V74.4885H89.2453L90.6397 77.7423Z" fill="#3D3030"/>
</g>
</svg>
