<svg width="25" height="25" viewBox="0 0 25 25" fill="none" xmlns="http://www.w3.org/2000/svg">
<path d="M22.7676 22.3215C23.3295 22.3215 23.8165 22.136 24.2304 21.7696L17.1475 14.6864C16.9776 14.8081 16.8129 14.9264 16.6573 15.039C16.1272 15.4295 15.697 15.7342 15.3667 15.9526C15.0364 16.1715 14.5969 16.3945 14.0484 16.6223C13.4994 16.8503 12.988 16.964 12.5136 16.964H12.4997H12.4858C12.0114 16.964 11.5 16.8504 10.9511 16.6223C10.4022 16.3945 9.96275 16.1715 9.63278 15.9526C9.30248 15.7342 8.87251 15.4295 8.34219 15.039C8.1944 14.9306 8.0305 14.8117 7.8533 14.6845L0.769043 21.7696C1.18294 22.136 1.6702 22.3215 2.23211 22.3215H22.7676Z" fill="#F4B611"/>
<path d="M1.40919 10.2262C0.879184 9.8728 0.409181 9.46811 0 9.01227V19.7887L6.24284 13.5459C4.99392 12.674 3.38474 11.5687 1.40919 10.2262Z" fill="#F4B611"/>
<path d="M23.6051 10.2261C21.7048 11.5123 20.0898 12.6195 18.7598 13.5484L25.0001 19.789V9.01227C24.6 9.45894 24.1351 9.86336 23.6051 10.2261Z" fill="#F4B611"/>
<path d="M22.7677 2.67859H2.23225C1.51583 2.67859 0.965032 2.92051 0.57918 3.40386C0.193011 3.88743 0.000244141 4.49219 0.000244141 5.21746C0.000244141 5.8033 0.256056 6.43806 0.767453 7.12194C1.27885 7.80554 1.82302 8.34249 2.39969 8.73307C2.71582 8.95642 3.66917 9.61919 5.25973 10.7211C6.11836 11.3161 6.86505 11.8348 7.50671 12.2823C8.05365 12.6634 8.52533 12.9934 8.91477 13.2673C8.95948 13.2986 9.02978 13.3489 9.1231 13.4157C9.22364 13.4879 9.35087 13.5795 9.50782 13.6929C9.81007 13.9114 10.0612 14.0881 10.2611 14.2231C10.4609 14.3582 10.7028 14.509 10.9867 14.6765C11.2703 14.8437 11.5378 14.9695 11.7889 15.0532C12.0401 15.1368 12.2726 15.1787 12.4864 15.1787H12.5003H12.5142C12.728 15.1787 12.9606 15.1368 13.2117 15.0532C13.4628 14.9695 13.7301 14.844 14.0139 14.6765C14.2975 14.509 14.5392 14.3578 14.7395 14.2231C14.9395 14.0881 15.1906 13.9115 15.4929 13.6929C15.6495 13.5795 15.7768 13.4878 15.8773 13.4159C15.9707 13.3489 16.0409 13.2989 16.0859 13.2673C16.3893 13.0562 16.8621 12.7275 17.4977 12.2862C18.6543 11.4825 20.3576 10.2998 22.6149 8.73307C23.2938 8.25889 23.861 7.68667 24.3168 7.01723C24.7719 6.34779 25 5.64557 25 4.91082C25 4.29693 24.7788 3.77165 24.3374 3.33414C23.8955 2.89718 23.3722 2.67859 22.7677 2.67859Z" fill="#F4B611"/>
</svg>
