<svg width="20" height="21" viewBox="0 0 20 21" fill="none" xmlns="http://www.w3.org/2000/svg">
<path d="M2.71934 19.9456C2.71934 19.9456 2.70157 20.4619 3.13829 20.4619C3.68159 20.4619 8.17975 20.455 8.17975 20.455L8.18715 15.6849C8.18715 15.6849 8.11609 14.8985 8.77708 14.8985H10.8689C11.6505 14.8985 11.6024 15.6849 11.6024 15.6849L11.5935 20.4396C11.5935 20.4396 15.8585 20.4396 16.5284 20.4396C17.0828 20.4396 17.0576 19.7969 17.0576 19.7969V11.0027L10.1028 3.85901L2.71934 11.0027V19.9456Z" fill="#3C3C3C"/>
<path d="M0 10.3378C0 10.3378 0.626943 11.672 1.99408 10.3378L10.1643 2.35645L17.8246 10.2882C19.4071 11.6062 20 10.2882 20 10.2882L10.1643 0L0 10.3378Z" fill="#3C3C3C"/>
<path d="M17.6389 2.33765H15.6685L15.6766 5.09667L17.6389 7.01892V2.33765Z" fill="#3C3C3C"/>
</svg>
