<svg width="310" height="33" viewBox="0 0 310 33" fill="none" xmlns="http://www.w3.org/2000/svg">
<path d="M2.88 4.976C2.58133 4.976 2.31467 4.99733 2.08 5.04C1.35467 5.18933 0.789333 5.53067 0.384 6.064L1.44 0.943998H20.16L19.392 6.32C18.9227 5.424 18.144 4.976 17.056 4.976H13.408V22.416C13.408 23.504 13.4507 24.1973 13.536 24.496C13.7067 25.0293 14.144 25.5307 14.848 26H6.496C7.2 25.5307 7.63733 25.0293 7.808 24.496C7.89333 24.1973 7.936 23.504 7.936 22.416V4.976H2.88ZM35.4218 22.128C35.4218 22.5547 35.3898 22.9173 35.3258 23.216C35.1551 23.9413 34.7178 24.5493 34.0138 25.04C33.0324 25.7227 31.7204 26.1067 30.0778 26.192C28.5418 26.256 27.2191 26.064 26.1098 25.616C23.8698 24.6987 22.4724 22.8747 21.9178 20.144C21.6618 18.7573 21.6724 17.2107 21.9498 15.504C22.2911 13.3707 23.0058 11.7707 24.0938 10.704C25.0324 9.78667 26.1738 9.17867 27.5178 8.88C28.6484 8.624 29.7684 8.61333 30.8778 8.848C32.9044 9.296 34.3444 10.544 35.1978 12.592C35.5178 13.36 35.7204 14.3413 35.8058 15.536C35.8911 16.624 35.8591 17.2853 35.7098 17.52C35.5818 17.712 34.6111 17.808 32.7978 17.808H26.6858C26.6644 18.2133 26.7071 18.768 26.8138 19.472C26.8991 20.2613 27.0271 20.8267 27.1978 21.168C27.6884 22.192 28.4351 22.768 29.4378 22.896C31.3578 23.1733 33.0324 22.544 34.4618 21.008C34.8031 20.6453 35.1231 20.2187 35.4218 19.728V22.128ZM31.1018 13.744C31.0378 13.232 30.8138 12.8053 30.4298 12.464C30.1524 12.208 29.8004 12.0587 29.3738 12.016C29.0111 11.9733 28.6591 12.016 28.3177 12.144C27.8271 12.336 27.4538 12.6773 27.1978 13.168C27.1124 13.36 27.0378 13.5733 26.9738 13.808L26.8778 14.16L26.8138 14.448V14.672C26.8564 14.7573 26.9204 14.8 27.0058 14.8H30.7818C31.0804 14.8 31.1871 14.448 31.1018 13.744ZM50.6195 9.552C51.4728 10.064 52.0062 10.9067 52.2195 12.08C52.3048 12.4853 52.3582 12.976 52.3795 13.552V22.96L52.4115 23.792C52.4115 24.112 52.4542 24.3893 52.5395 24.624C52.7102 25.2213 53.0942 25.68 53.6915 26H46.5875C47.1848 25.68 47.5688 25.2213 47.7395 24.624C47.8248 24.3893 47.8782 24.112 47.8995 23.792V16.4C47.8995 15.0773 47.8782 14.2453 47.8355 13.904C47.7075 13.2213 47.4195 12.752 46.9715 12.496C46.6942 12.3467 46.3315 12.272 45.8835 12.272C45.3288 12.272 44.8702 12.4 44.5075 12.656C44.0382 12.976 43.7395 13.4773 43.6115 14.16C43.5475 14.5227 43.5155 15.2907 43.5155 16.464V22.96L43.5475 23.792C43.5475 24.112 43.5902 24.3893 43.6755 24.624C43.8462 25.2213 44.2302 25.68 44.8275 26H37.7235C38.3208 25.68 38.7048 25.2213 38.8755 24.624C38.9608 24.3893 39.0142 24.112 39.0355 23.792V13.68C39.0355 12.5707 38.9928 11.8773 38.9075 11.6C38.7582 11.024 38.3528 10.5227 37.6915 10.096L42.4275 8.88L42.9075 10.096C44.0382 9.24267 45.3608 8.77333 46.8755 8.688C48.3048 8.624 49.5528 8.912 50.6195 9.552ZM54.8625 26C55.5665 25.5093 56.0465 24.816 56.3025 23.92L60.7505 9.072H64.3025L69.3905 23.024C70.0092 24.6667 70.6065 25.6587 71.1825 26H64.1425C64.9105 25.3387 65.0705 24.368 64.6225 23.088L62.2225 16.56L60.0785 23.632C59.9505 24.144 59.9505 24.5493 60.0785 24.848C60.1852 25.1893 60.4945 25.5733 61.0065 26H54.8625ZM78.904 8.816C80.056 8.624 81.208 8.656 82.36 8.912C83.8107 9.25333 85.016 9.936 85.976 10.96C86.936 11.984 87.5547 13.552 87.832 15.664C88.0667 17.4347 88.0347 19.0133 87.736 20.4C87.1173 23.088 85.5707 24.8693 83.096 25.744C82.0507 26.128 80.792 26.2667 79.32 26.16C77.656 26.0533 76.3547 25.648 75.416 24.944C74.264 24.048 73.432 22.6933 72.92 20.88C72.728 20.176 72.5893 19.4293 72.504 18.64C72.44 18 72.408 17.3707 72.408 16.752C72.4293 15.5147 72.7067 14.3093 73.24 13.136C73.9227 11.6427 74.936 10.5013 76.28 9.712C76.6853 9.47733 77.1547 9.27467 77.688 9.104C78.1147 8.976 78.52 8.88 78.904 8.816ZM77.848 13.808C77.5067 14.64 77.368 16.0267 77.432 17.968C77.496 20.016 77.7947 21.3813 78.328 22.064C78.904 22.8107 79.6613 23.1413 80.6 23.056C81.5173 22.928 82.2 22.3733 82.648 21.392C82.9253 20.6667 83.032 19.3227 82.968 17.36C82.904 15.2267 82.6267 13.8187 82.136 13.136C81.56 12.3253 80.8133 11.984 79.896 12.112C78.936 12.1973 78.2533 12.7627 77.848 13.808Z" fill="#F4B611"/>
<path d="M101.849 10.736C102.126 10.8 102.436 10.8533 102.777 10.896C103.246 10.96 103.684 10.9813 104.089 10.96C105.241 10.9173 106.073 10.608 106.585 10.032C106.948 9.648 107.193 9.12533 107.321 8.464C107.449 7.84533 107.438 7.25867 107.289 6.704C107.076 5.85067 106.457 5.28533 105.433 5.008C105.006 4.92267 104.409 4.86933 103.641 4.848H101.849V10.736ZM101.849 21.072C101.87 21.2213 101.892 21.3387 101.913 21.424C101.998 21.7227 102.19 21.9467 102.489 22.096C102.766 22.2453 103.31 22.3093 104.121 22.288C104.889 22.288 105.454 22.224 105.817 22.096C106.862 21.7973 107.556 21.0827 107.897 19.952C108.281 18.6293 108.078 17.488 107.289 16.528C106.756 15.8667 105.86 15.44 104.601 15.248C104.174 15.184 103.673 15.152 103.097 15.152H101.849V21.072ZM94.937 26C95.641 25.5307 96.0783 25.0293 96.249 24.496C96.3343 24.1973 96.377 23.504 96.377 22.416V4.528C96.377 3.44 96.3343 2.74666 96.249 2.448C96.0783 1.91467 95.641 1.41333 94.937 0.943998H105.753C106.649 0.965331 107.428 1.05066 108.089 1.2C109.945 1.584 111.321 2.48 112.217 3.888C112.793 4.80533 113.081 5.86133 113.081 7.056C113.102 8.208 112.846 9.264 112.313 10.224C111.716 11.2693 110.83 12.176 109.657 12.944C110.98 13.6053 111.94 14.2667 112.537 14.928C113.22 15.7173 113.646 16.7307 113.817 17.968C114.137 20.1867 113.657 22.0533 112.377 23.568C111.524 24.5707 110.361 25.264 108.889 25.648C108.313 25.776 107.673 25.872 106.969 25.936C106.457 25.9787 105.849 26 105.145 26H94.937ZM129.291 26.16C127.669 26.3093 126.293 25.8293 125.163 24.72C123.307 26 121.355 26.3413 119.307 25.744C117.685 25.2533 116.587 24.3147 116.011 22.928C115.797 22.3947 115.701 21.7547 115.723 21.008C115.723 20.2187 115.872 19.5467 116.171 18.992C116.704 17.9893 117.557 17.2107 118.731 16.656C119.691 16.1867 120.747 15.9093 121.899 15.824L122.315 15.792C123.211 15.728 123.808 15.6107 124.107 15.44C124.32 15.3333 124.501 15.1307 124.651 14.832C124.693 14.7253 124.715 14.48 124.715 14.096C124.715 13.7333 124.693 13.4987 124.651 13.392C124.437 12.816 123.851 12.432 122.891 12.24C122.037 12.0907 121.056 12.144 119.947 12.4C118.752 12.6987 117.707 13.1787 116.811 13.84L117.099 9.616L118.347 9.264C119.925 8.83733 121.515 8.64533 123.115 8.688C125.141 8.77333 126.667 9.25333 127.691 10.128C128.437 10.768 128.907 11.6853 129.099 12.88C129.184 13.3067 129.227 13.808 129.227 14.384V19.728C129.227 20.8373 129.259 21.552 129.323 21.872C129.429 22.384 129.685 22.7573 130.091 22.992C130.389 23.1627 130.859 23.28 131.499 23.344L129.291 26.16ZM121.483 19.312C120.864 19.8453 120.608 20.496 120.715 21.264C120.8 21.8613 121.131 22.288 121.707 22.544C122.005 22.672 122.347 22.7147 122.731 22.672C123.093 22.6293 123.403 22.5333 123.659 22.384C124.256 22.0427 124.597 21.6267 124.683 21.136C124.704 21.0293 124.725 20.176 124.747 18.576H124.523C123.072 18.576 122.059 18.8213 121.483 19.312ZM147.255 8.688L141.303 10.256C141.985 10.448 142.423 10.768 142.615 11.216C142.7 11.3867 142.753 11.6 142.775 11.856V19.6C142.775 20.0053 142.753 20.3573 142.711 20.656C142.583 21.4453 142.263 21.9893 141.751 22.288C141.409 22.48 141.025 22.5867 140.599 22.608C140.193 22.6293 139.863 22.576 139.607 22.448C139.073 22.1493 138.743 21.7333 138.615 21.2C138.529 20.7947 138.487 19.7707 138.487 18.128V8.688L132.535 10.256C133.217 10.448 133.655 10.768 133.847 11.216C133.932 11.3867 133.985 11.6 134.007 11.856V21.168C134.028 21.7867 134.103 22.32 134.231 22.768C134.529 23.9627 135.212 24.8373 136.279 25.392C137.367 25.9253 138.54 26.1067 139.799 25.936C140.993 25.7867 142.124 25.3173 143.191 24.528C143.895 25.6373 145.687 26.1067 148.567 25.936C149.761 25.7867 150.892 25.3173 151.959 24.528C152.172 25.1467 152.407 25.5627 152.663 25.776L157.527 24.688C156.801 24.3253 156.343 23.7387 156.151 22.928C156.065 22.6507 156.023 22.32 156.023 21.936V8.688L150.071 10.256C150.753 10.448 151.191 10.768 151.383 11.216C151.468 11.3867 151.521 11.6 151.543 11.856V19.6C151.543 20.0053 151.521 20.3573 151.479 20.656C151.351 21.4453 151.031 21.9893 150.519 22.288C150.177 22.48 149.793 22.5867 149.367 22.608C148.961 22.6293 148.631 22.576 148.375 22.448C147.841 22.1493 147.511 21.7333 147.383 21.2C147.297 20.7947 147.255 19.7707 147.255 18.128V8.688ZM173.922 22.128C173.922 22.5547 173.89 22.9173 173.826 23.216C173.655 23.9413 173.218 24.5493 172.514 25.04C171.532 25.7227 170.22 26.1067 168.578 26.192C167.042 26.256 165.719 26.064 164.61 25.616C162.37 24.6987 160.972 22.8747 160.418 20.144C160.162 18.7573 160.172 17.2107 160.45 15.504C160.791 13.3707 161.506 11.7707 162.594 10.704C163.532 9.78667 164.674 9.17867 166.018 8.88C167.148 8.624 168.268 8.61333 169.378 8.848C171.404 9.296 172.844 10.544 173.698 12.592C174.018 13.36 174.22 14.3413 174.306 15.536C174.391 16.624 174.359 17.2853 174.21 17.52C174.082 17.712 173.111 17.808 171.298 17.808H165.186C165.164 18.2133 165.207 18.768 165.314 19.472C165.399 20.2613 165.527 20.8267 165.698 21.168C166.188 22.192 166.935 22.768 167.938 22.896C169.858 23.1733 171.532 22.544 172.962 21.008C173.303 20.6453 173.623 20.2187 173.922 19.728V22.128ZM169.602 13.744C169.538 13.232 169.314 12.8053 168.93 12.464C168.652 12.208 168.3 12.0587 167.874 12.016C167.511 11.9733 167.159 12.016 166.818 12.144C166.327 12.336 165.954 12.6773 165.698 13.168C165.612 13.36 165.538 13.5733 165.474 13.808L165.378 14.16L165.314 14.448V14.672C165.356 14.7573 165.42 14.8 165.506 14.8H169.282C169.58 14.8 169.687 14.448 169.602 13.744ZM183.52 9.072L187.168 20.336L191.488 9.072H198.976C198.272 9.54133 197.834 10.0427 197.664 10.576C197.578 10.8747 197.536 11.568 197.536 12.656V22.416C197.536 23.504 197.578 24.1973 197.664 24.496C197.834 25.0293 198.272 25.5307 198.976 26H190.624C191.306 25.5307 191.733 25.0293 191.904 24.496C191.989 24.1973 192.032 23.504 192.032 22.416V15.856L188.448 26H185.024L181.92 15.728V22.416C181.92 23.504 181.962 24.1973 182.048 24.496C182.218 25.0293 182.656 25.5307 183.36 26H176.128C176.832 25.5307 177.269 25.0293 177.44 24.496C177.525 24.1973 177.568 23.504 177.568 22.416V12.656C177.568 11.568 177.525 10.8747 177.44 10.576C177.269 10.0427 176.832 9.54133 176.128 9.072H183.52ZM208.627 9.072C207.71 9.584 207.401 10.3413 207.699 11.344L210.131 18.896L212.115 12.432C212.307 11.792 212.393 11.2373 212.371 10.768C212.329 10.1067 212.073 9.54133 211.603 9.072H217.555C217.001 9.456 216.542 10.192 216.179 11.28L210.611 29.136C210.099 30.7787 209.609 31.7387 209.139 32.016C208.777 32.2293 207.678 32.336 205.843 32.336H204.115C205.118 32.1013 206.131 30.7573 207.155 28.304C207.518 27.4293 207.678 26.7467 207.635 26.256C207.614 25.9573 207.379 25.136 206.931 23.792L202.739 11.248C202.398 10.2453 201.897 9.52 201.235 9.072H208.627ZM238.812 21.872V6.864C238.812 6.62933 238.802 6.42667 238.781 6.256C238.695 5.76533 238.546 5.43467 238.333 5.264C238.013 5.02933 237.469 4.912 236.701 4.912H235.453V15.664C235.453 17.7547 235.261 19.3333 234.877 20.4C234.706 20.912 234.471 21.4027 234.173 21.872H238.812ZM229.085 26V28.144H224.541V21.872H228.797C229.309 21.4453 229.65 20.9013 229.821 20.24C229.927 19.792 229.981 18.9387 229.981 17.68V4.528C229.981 3.44 229.938 2.74666 229.853 2.448C229.682 1.91467 229.245 1.41333 228.541 0.943998H245.725C245.021 1.41333 244.583 1.91467 244.413 2.448C244.327 2.74666 244.285 3.44 244.285 4.528V21.872H247.517V28.144H243.037V26H229.085ZM257.092 8.816C258.244 8.624 259.396 8.656 260.548 8.912C261.998 9.25333 263.204 9.936 264.164 10.96C265.124 11.984 265.742 13.552 266.02 15.664C266.254 17.4347 266.222 19.0133 265.924 20.4C265.305 23.088 263.758 24.8693 261.284 25.744C260.238 26.128 258.98 26.2667 257.508 26.16C255.844 26.0533 254.542 25.648 253.604 24.944C252.452 24.048 251.62 22.6933 251.108 20.88C250.916 20.176 250.777 19.4293 250.692 18.64C250.628 18 250.596 17.3707 250.596 16.752C250.617 15.5147 250.894 14.3093 251.428 13.136C252.11 11.6427 253.124 10.5013 254.468 9.712C254.873 9.47733 255.342 9.27467 255.876 9.104C256.302 8.976 256.708 8.88 257.092 8.816ZM256.036 13.808C255.694 14.64 255.556 16.0267 255.62 17.968C255.684 20.016 255.982 21.3813 256.516 22.064C257.092 22.8107 257.849 23.1413 258.788 23.056C259.705 22.928 260.388 22.3733 260.836 21.392C261.113 20.6667 261.22 19.3227 261.156 17.36C261.092 15.2267 260.814 13.8187 260.324 13.136C259.748 12.3253 259.001 11.984 258.084 12.112C257.124 12.1973 256.441 12.7627 256.036 13.808ZM275.395 9.072L279.043 20.336L283.363 9.072H290.851C290.147 9.54133 289.709 10.0427 289.539 10.576C289.453 10.8747 289.411 11.568 289.411 12.656V22.416C289.411 23.504 289.453 24.1973 289.539 24.496C289.709 25.0293 290.147 25.5307 290.851 26H282.499C283.181 25.5307 283.608 25.0293 283.779 24.496C283.864 24.1973 283.907 23.504 283.907 22.416V15.856L280.323 26H276.899L273.795 15.728V22.416C273.795 23.504 273.837 24.1973 273.923 24.496C274.093 25.0293 274.531 25.5307 275.235 26H268.003C268.707 25.5307 269.144 25.0293 269.315 24.496C269.4 24.1973 269.443 23.504 269.443 22.416V12.656C269.443 11.568 269.4 10.8747 269.315 10.576C269.144 10.0427 268.707 9.54133 268.003 9.072H275.395ZM300.502 9.072C299.585 9.584 299.276 10.3413 299.574 11.344L302.006 18.896L303.99 12.432C304.182 11.792 304.268 11.2373 304.246 10.768C304.204 10.1067 303.948 9.54133 303.478 9.072H309.43C308.876 9.456 308.417 10.192 308.054 11.28L302.486 29.136C301.974 30.7787 301.484 31.7387 301.014 32.016C300.652 32.2293 299.553 32.336 297.718 32.336H295.99C296.993 32.1013 298.006 30.7573 299.03 28.304C299.393 27.4293 299.553 26.7467 299.51 26.256C299.489 25.9573 299.254 25.136 298.806 23.792L294.614 11.248C294.273 10.2453 293.772 9.52 293.11 9.072H300.502Z" fill="#333333"/>
</svg>
