<svg width="22" height="22" viewBox="0 0 22 22" fill="none" xmlns="http://www.w3.org/2000/svg">
<g clip-path="url(#clip0)">
<path d="M21.9526 17.046C21.8904 16.8585 21.4945 16.5823 20.7652 16.218C20.5677 16.1032 20.2861 15.9472 19.9219 15.7492C19.5573 15.5513 19.2264 15.3689 18.9297 15.2022C18.6324 15.0355 18.3539 14.8741 18.0937 14.7181C18.0521 14.6868 17.9219 14.5958 17.7032 14.4444C17.4842 14.2935 17.2995 14.1815 17.1482 14.1084C16.9972 14.0358 16.8487 13.9992 16.7029 13.9992C16.4946 13.9992 16.2344 14.1478 15.922 14.4444C15.6096 14.7415 15.3231 15.0642 15.0628 15.4134C14.8025 15.7625 14.5264 16.0852 14.235 16.3821C13.9432 16.6791 13.7035 16.8275 13.5162 16.8275C13.4222 16.8275 13.3049 16.8012 13.1645 16.7495C13.024 16.6975 12.9172 16.6529 12.8439 16.6169C12.7712 16.5802 12.6465 16.5075 12.4693 16.3978C12.2917 16.2884 12.193 16.2285 12.1722 16.218C10.7452 15.4262 9.52136 14.5199 8.50043 13.4994C7.47984 12.4783 6.57346 11.2546 5.78183 9.82743C5.77144 9.80658 5.7114 9.70758 5.60211 9.53059C5.49266 9.35344 5.41971 9.22861 5.38326 9.15549C5.34681 9.08265 5.30254 8.97583 5.25055 8.83523C5.19856 8.69464 5.17245 8.57753 5.17245 8.48367C5.17245 8.29628 5.32093 8.05658 5.61782 7.76489C5.91466 7.47336 6.23765 7.19721 6.58648 6.93699C6.93558 6.67676 7.25825 6.39021 7.5552 6.07783C7.85203 5.76529 8.00045 5.50501 8.00045 5.29672C8.00045 5.15098 7.964 5.0024 7.89116 4.85141C7.81827 4.70009 7.7063 4.51544 7.5552 4.29659C7.40404 4.07785 7.31292 3.94776 7.28162 3.9059C7.12554 3.64567 6.96426 3.36706 6.7974 3.07016C6.63054 2.77333 6.4484 2.44245 6.2504 2.07792C6.05257 1.71355 5.89643 1.4322 5.78172 1.2343C5.41735 0.505291 5.14137 0.109289 4.95382 0.0470102C4.88087 0.0157613 4.77142 0 4.62573 0C4.34433 0 3.97722 0.0519903 3.52414 0.156299C3.0709 0.260444 2.71424 0.369678 2.4538 0.48444C1.93297 0.703073 1.38094 1.33845 0.797552 2.39035C0.266321 3.3693 0.000732422 4.33824 0.000732422 5.29644C0.000732422 5.57747 0.0189564 5.85088 0.0554043 6.11674C0.0918523 6.38233 0.156977 6.68185 0.250833 7.01524C0.344525 7.34853 0.420103 7.59611 0.477237 7.75734C0.534426 7.91867 0.641198 8.20768 0.797497 8.62448C0.953578 9.04117 1.04743 9.29625 1.07868 9.39C1.44322 10.4109 1.8755 11.3222 2.37543 12.1244C3.19797 13.4576 4.32047 14.8355 5.74227 16.2574C7.16412 17.6792 8.5417 18.8016 9.87506 19.6245C10.6771 20.1244 11.5888 20.5566 12.6095 20.9214C12.7033 20.9525 12.9584 21.0461 13.3749 21.2027C13.7916 21.3589 14.0807 21.4657 14.242 21.523C14.4034 21.5804 14.6511 21.656 14.9841 21.7498C15.3178 21.8437 15.617 21.9088 15.8826 21.9455C16.1484 21.9815 16.4218 22.0001 16.7029 22.0001C17.6611 22.0001 18.6301 21.7343 19.6092 21.2031C20.661 20.62 21.2962 20.0678 21.5149 19.5466C21.63 19.2864 21.7389 18.9297 21.8431 18.4764C21.9475 18.0234 21.9994 17.6563 21.9994 17.375C21.9997 17.2287 21.984 17.1195 21.9526 17.046Z" fill="#F4B611"/>
</g>
<defs>
<clipPath id="clip0">
<rect width="22" height="22" fill="white"/>
</clipPath>
</defs>
</svg>
